HIERARCHY
ROOT RootJoint
{
    OFFSET   0.000000   0.000000   0.000000
    CHANNELS 6 Xposition Yposition Zposition Xrotation Yrotation Zrotation
    JOINT pelvis_lowerback
    {
        OFFSET   0.000000   0.093605   0.000000
        CHANNELS 3 Xrotation Yrotation Zrotation
        JOINT lowerback_torso
        {
            OFFSET   0.000000   0.100000   0.000000
            CHANNELS 3 Xrotation Yrotation Zrotation
            JOINT torso_head
            {
                OFFSET   0.000000   0.282350   0.000000
                CHANNELS 3 Xrotation Yrotation Zrotation
                End Site
                {
                    OFFSET   0.000000   0.192650   0.000000
                }
            }
            JOINT rTorso_Clavicle
            {
                OFFSET  -0.001000   0.157500   0.000000
                CHANNELS 3 Xrotation Yrotation Zrotation
                JOINT rShoulder
                {
                    OFFSET  -0.117647   0.000000   0.000000
                    CHANNELS 3 Xrotation Yrotation Zrotation
                    JOINT rElbow
                    {
                        OFFSET  -0.245000   0.000000   0.000000
                        CHANNELS 3 Xrotation Yrotation Zrotation
                        JOINT rWrist
                        {
                            OFFSET  -0.240000   0.000000   0.000000
                            CHANNELS 3 Xrotation Yrotation Zrotation
                            End Site
                            {
                                OFFSET  -0.116353  -0.002500   0.000000
                            }
                        }
                    }
                }
            }
            JOINT lTorso_Clavicle
            {
                OFFSET   0.001000   0.157500   0.000000
                CHANNELS 3 Xrotation Yrotation Zrotation
                JOINT lShoulder
                {
                    OFFSET   0.117647   0.000000   0.000000
                    CHANNELS 3 Xrotation Yrotation Zrotation
                    JOINT lElbow
                    {
                        OFFSET   0.245000   0.000000   0.000000
                        CHANNELS 3 Xrotation Yrotation Zrotation
                        JOINT lWrist
                        {
                            OFFSET   0.240000   0.000000   0.000000
                            CHANNELS 3 Xrotation Yrotation Zrotation
                            End Site
                            {
                                OFFSET   0.116353  -0.002500   0.000000
                            }
                        }
                    }
                }
            }
        }
    }
    JOINT rHip
    {
        OFFSET  -0.100000  -0.051395   0.000000
        CHANNELS 3 Xrotation Yrotation Zrotation
        JOINT rKnee
        {
            OFFSET   0.000000  -0.410000   0.000000
            CHANNELS 3 Xrotation Yrotation Zrotation
            JOINT rAnkle
            {
                OFFSET   0.000000  -0.390000   0.000000
                CHANNELS 3 Xrotation Yrotation Zrotation
                JOINT rToeJoint
                {
                    OFFSET   0.000000  -0.050000   0.130000
                    CHANNELS 3 Xrotation Yrotation Zrotation
                    End Site
                    {
                        OFFSET  -0.010000   0.002000   0.060000
                    }
                }
            }
        }
    }
    JOINT lHip
    {
        OFFSET   0.100000  -0.051395   0.000000
        CHANNELS 3 Xrotation Yrotation Zrotation
        JOINT lKnee
        {
            OFFSET   0.000000  -0.410000   0.000000
            CHANNELS 3 Xrotation Yrotation Zrotation
            JOINT lAnkle
            {
                OFFSET   0.000000  -0.390000   0.000000
                CHANNELS 3 Xrotation Yrotation Zrotation
                JOINT lToeJoint
                {
                    OFFSET   0.000000  -0.050000   0.130000
                    CHANNELS 3 Xrotation Yrotation Zrotation
                    End Site
                    {
                        OFFSET   0.010000   0.002000   0.060000
                    }
                }
            }
        }
    }
}
MOTION
Frames: 11
Frame Time:   0.008333
 -2.376719   0.925631   3.975860   0.000000   0.000000   0.000000   0.000000   0.000000   0.000000   0.000000   0.000000   0.000000   0.000000   0.000000   0.000000   0.000000   0.000000   0.000000   0.000000   0.000000   0.000000   0.000000   0.000000   0.000000   0.000000   0.000000   0.000000   0.000000   0.000000   0.000000   0.000000   0.000000   0.000000   0.000000   0.000000   0.000000   0.000000   0.000000   0.000000   0.000000   0.000000   0.000000   0.000000   0.000000   0.000000   0.000000   0.000000   0.000000   0.000000   0.000000   0.000000   0.000000   0.000000   0.000000   0.000000   0.000000   0.000000   0.000000   0.000000   0.000000   0.000000   0.000000   0.000000
 -2.375785   0.925059   3.973674  -0.599675   0.164969   0.216872   1.337021  -0.025279   0.021339  -0.305759  -0.180514  -0.074735   0.036365  -0.485750   0.042833  -0.625706  -0.122200  -0.227051  -2.536869  -0.326231   0.551761   0.012521   3.541603   0.084100  -0.038154  -1.697023  -0.760323  -0.423206   0.611997   0.189919  -0.631137  -0.412794  -1.451017   0.032813  -3.488031  -0.017958  -0.056130   1.652258   1.184349  -0.720814  -0.921707  -0.688969   3.446307   0.013173  -0.023407  -2.351570  -0.345838   0.447777  -0.186856  -0.000049   0.001794  -0.575192   0.241477  -0.022873   3.295301  -0.005168   0.011835  -2.232460   0.278058  -0.038187   0.335304  -0.000465   0.001992
 -2.374562   0.924012   3.971178  -1.421019   0.366793   0.477875   2.739015  -0.075964   0.093904  -0.396014  -0.390414  -0.165965   0.147067  -0.959828   0.115806  -1.232516  -0.056160  -0.310130  -4.927803  -0.456266   1.167082   0.022155   7.066064   0.144633  -0.159187  -2.329091  -1.292216  -0.821639   0.989963   0.041343  -1.249308  -1.005623  -3.084537   0.072953  -7.141852  -0.029564  -0.128930   2.186409   1.916332  -1.384291  -1.838603  -1.764547   7.076412   0.031530  -0.045285  -4.525827  -0.706505   0.843899  -0.368662  -0.000653   0.003193  -1.008359   0.503511   0.164483   6.959803  -0.016075   0.025883  -4.303281   0.550006  -0.062437   0.614167  -0.001359   0.003406
 -2.373288   0.922324   3.968559  -2.288926   0.577182   0.743723   4.091836  -0.139706   0.187168  -0.416087  -0.606178  -0.259262   0.261941  -1.403140   0.203276  -1.797038   0.157644  -0.273212  -7.159765  -0.478298   1.824258   0.027971  10.413471   0.185035  -0.274080  -2.492300  -1.614373  -1.188463   1.174712  -0.308682  -1.850767  -1.678045  -4.776213   0.112271 -10.854909  -0.037794  -0.192421   2.242097   2.272786  -2.048190  -2.693125  -3.094665  10.514452   0.049175  -0.063522  -6.546944  -1.063842   1.195837  -0.514931  -0.001337   0.003947  -1.371865   0.761206   0.586120  10.661737  -0.030330   0.040283  -6.230247   0.809738  -0.074178   0.886852  -0.002591   0.004568
 -2.372059   0.919899   3.965924  -3.143358   0.779186   1.004840   5.370291  -0.208275   0.280863  -0.415980  -0.819274  -0.355190   0.365131  -1.816611   0.295080  -2.322057   0.464122  -0.151309  -9.242122  -0.443765   2.505760   0.030086  13.570767   0.210533  -0.381573  -2.430968  -1.781870  -1.526960   1.229623  -0.771838  -2.435915  -2.379810  -6.466036   0.147127 -14.603471  -0.043857  -0.249427   2.058578   2.377373  -2.747024  -3.474801  -4.605408  13.711354   0.063826  -0.078722  -8.431566  -1.413015   1.508972  -0.649841  -0.002035   0.004437  -1.656649   1.005616   1.217193  14.167752  -0.044832   0.053691  -8.024991   1.056566  -0.074763   1.146593  -0.003935   0.005460
 -2.370871   0.916715   3.963270  -3.976302   0.953624   1.251755   6.591226  -0.273893   0.375014  -0.402410  -1.022839  -0.454448   0.454218  -2.202053   0.385714  -2.810892   0.827967   0.023494 -11.184522  -0.380934   3.192418   0.029125  16.538532   0.224428  -0.483435  -2.247695  -1.846240  -1.840230   1.198448  -1.298748  -3.004226  -3.080713  -8.121766   0.176216 -18.374555  -0.047705  -0.303315   1.744609   2.318121  -3.485672  -4.177608  -6.242110  16.673982   0.074760  -0.091483 -10.189853  -1.751083   1.787895  -0.775843  -0.002677   0.004756  -1.912574   1.198088   1.962440  17.376343  -0.055912   0.063522  -9.760687   1.236374  -0.097889   0.589117   0.001125   0.000935
 -2.369780   0.912732   3.960672  -4.792760   1.111947   1.472761   7.759119  -0.341917   0.465293  -0.371823  -1.220558  -0.552645   0.533873  -2.561589   0.474045  -3.266046   1.220305   0.228319 -12.995797  -0.309342   3.870202   0.025656  19.321744   0.229676  -0.580331  -1.996792  -1.841876  -2.131045   1.109910  -1.850780  -3.554839  -3.763938  -9.720507   0.199211 -22.160756  -0.049837  -0.355373   1.356289   2.154576  -4.243458  -4.802665  -7.949384  19.416943   0.081892  -0.101470 -11.831029  -2.076324   2.036151  -0.895109  -0.003227   0.004944  -2.151635   1.373532   2.816306  20.366410  -0.064041   0.071906 -11.383131   1.408231  -0.110346   0.082054   0.005187  -0.002351
 -2.368861   0.907781   3.957914  -5.342628   1.229743   1.682077   8.802372  -0.377654   0.445285  -0.583002  -1.325062  -0.574319   0.520542  -3.042821   0.565191  -3.723335   1.450186   0.397435 -14.918458  -0.232388   4.558398   0.016435  21.982498   0.238514  -0.653426  -1.741212  -1.634068  -2.393249   1.102930  -2.130853  -4.460176  -4.668829 -11.479758   0.206724 -25.929564  -0.065904  -0.398068   1.061187   1.660690  -5.499151  -5.677623  -9.686373  22.222505   0.083042  -0.120244 -12.280038  -2.572227   2.365017  -0.984805  -0.003327   0.005291  -2.536915   1.577295   3.701847  23.014020  -0.067691   0.077518 -13.145160   1.671115  -0.296730   0.475552   0.001392   0.000869
 -2.368012   0.901955   3.955285  -5.856695   1.354080   1.863877   9.791447  -0.428055   0.419907  -0.807018  -1.439525  -0.586942   0.491550  -3.494137   0.646692  -4.153760   1.680391   0.548517 -16.715788  -0.170532   5.199188   0.005482  24.471542   0.240681  -0.731940  -1.466240  -1.435976  -2.645596   1.049160  -2.350755  -5.338925  -5.527930 -13.114257   0.205134 -29.713285  -0.079004  -0.450358   0.722879   1.171917  -6.801928  -6.466253 -11.387325  24.836672   0.079911  -0.132417 -12.682643  -3.042938   2.666594  -0.978105  -0.002614   0.004131  -2.876504   1.739532   4.571616  25.412381  -0.067539   0.080169 -14.838268   1.888999  -0.483143   0.269728   0.002453  -0.000648
 -2.367199   0.895327   3.952801  -6.365156   1.471586   2.010979  10.738857  -0.490413   0.405584  -1.010316  -1.563704  -0.592457   0.461215  -3.915021   0.720388  -4.557075   1.912268   0.679309 -18.394405  -0.118636   5.793384  -0.005679  26.798926   0.237559  -0.807172  -1.181543  -1.269466  -2.886773   0.962123  -2.530612  -6.187221  -6.334156 -14.635535   0.197660 -33.505876  -0.089090  -0.499726   0.350778   0.740029  -8.095964  -7.154380 -13.028972  27.255710   0.074105  -0.138700 -13.057744  -3.484645   2.943774  -0.971147  -0.002044   0.003204  -3.193812   1.867074   5.377582  27.592829  -0.064074   0.079874 -16.477073   2.057277  -0.674818  -0.620733   0.006971  -0.005602
 -2.366388   0.888592   3.950589  -6.924547   1.479491   2.062225  11.682108  -0.521932   0.446425  -1.165704  -1.663621  -0.575252   0.434546  -4.306443   0.789361  -4.934406   2.153628   0.826925 -19.961151  -0.072916   6.361496  -0.015162  28.975626   0.230657  -0.877431  -0.879424  -1.137638  -3.109501   0.864790  -2.725542  -6.998741  -7.076318 -16.075628   0.188629 -37.300967  -0.096173  -0.545559  -0.028434   0.363808  -9.392914  -7.926858 -14.354553  29.953141   0.061406  -0.150031 -13.237451  -3.942921   3.333307  -0.979010  -0.001668   0.002691  -3.432595   1.979635   6.128094  29.572461  -0.058409   0.075550 -18.033501   2.186044  -0.862708  -1.758415   0.010724  -0.009141
